Coordinates
version=1
nRows=10
nColumns=40
inDegrees=yes

Units are S.I. units (second, meters, Newtons, ...)
If the header above contains a line with 'inDegrees', this indicates whether rotational values are in degrees (yes) or radians (no).

endheader
time	pelvis_tilt	pelvis_list	pelvis_rotation	pelvis_tx	pelvis_ty	pelvis_tz	hip_flexion_r	hip_adduction_r	hip_rotation_r	knee_angle_r	knee_angle_r_beta	ankle_angle_r	subtalar_angle_r	mtp_angle_r	hip_flexion_l	hip_adduction_l	hip_rotation_l	knee_angle_l	knee_angle_l_beta	ankle_angle_l	subtalar_angle_l	mtp_angle_l	lumbar_extension	lumbar_bending	lumbar_rotation	arm_flex_r	arm_add_r	arm_rot_r	elbow_flex_r	pro_sup_r	wrist_flex_r	wrist_dev_r	arm_flex_l	arm_add_l	arm_rot_l	elbow_flex_l	pro_sup_l	wrist_flex_l	wrist_dev_l
      4.40000000	    -35.01963980	     -1.85344745	      0.35297275	     -0.39516741	      0.62449017	     -0.89719753	     93.95617146	    -11.62976713	     -3.31963558	     95.15493706	      1.66076695	     37.14394492	      0.00000000	      0.00000000	     94.80611252	    -15.98260096	      0.51637385	     94.09695236	      1.64230163	     35.42246565	      0.00000000	      0.00000000	    -24.19191375	    -14.70596930	    -41.23345532	     33.91334827	    -26.97134153	     89.59955586	     78.40665433	     88.62458031	      0.00000000	      0.00000000	    -70.99621884	    -14.95788745	    -16.82270424	    116.02444477	     87.92704086	      0.00000000	      0.00000000
      4.40500000	    -34.98324715	     -1.82905541	      0.31219761	     -0.39528618	      0.62440271	     -0.89705305	     93.96866721	    -11.56092836	     -3.25796321	     95.18860837	      1.66135463	     37.01397743	      0.00000000	      0.00000000	     94.77918711	    -16.04574743	      0.48597850	     94.12528135	      1.64279607	     35.36372673	      0.00000000	      0.00000000	    -24.30711016	    -14.76743607	    -41.30782352	     33.94860368	    -26.89142038	     89.60356498	     78.35013476	     88.57825580	      0.00000000	      0.00000000	    -71.09371126	    -14.72573514	    -16.97877371	    116.14438979	     88.05606753	      0.00000000	      0.00000000
      4.41000000	    -34.97930195	     -1.80675000	      0.34927794	     -0.39543088	      0.62421585	     -0.89707569	     94.01216018	    -11.60232903	     -3.22602113	     95.23630086	      1.66218702	     36.98521239	      0.00000000	      0.00000000	     94.80862730	    -16.01937262	      0.46160278	     94.14519499	      1.64314363	     35.33283097	      0.00000000	      0.00000000	    -24.33249720	    -14.77977169	    -41.36670813	     33.96577110	    -26.89429020	     89.60236433	     78.36144551	     88.57504731	      0.00000000	      0.00000000	    -71.13655655	    -14.67877365	    -17.01756332	    116.17161999	     88.10079534	      0.00000000	      0.00000000
      4.41500000	    -34.90728878	     -1.75394578	      0.37305441	     -0.39544074	      0.62420447	     -0.89712409	     93.96101216	    -11.61840054	     -3.15682266	     95.26544502	      1.66269568	     37.04681571	      0.00000000	      0.00000000	     94.71710524	    -15.99716607	      0.38946384	     94.15937514	      1.64339112	     35.36538351	      0.00000000	      0.00000000	    -24.45255165	    -14.83125054	    -41.44253721	     33.98207563	    -26.86412033	     89.60400505	     78.34131240	     88.57085056	      0.00000000	      0.00000000	    -71.16319079	    -14.59952556	    -17.08062473	    116.18149328	     88.09308733	      0.00000000	      0.00000000
      4.42000000	    -35.57125325	     -1.84375465	      0.87639011	     -0.39695775	      0.62270304	     -0.89823333	     94.82588547	    -12.21150894	     -3.14030388	     95.36947137	      1.66451128	     36.89775058	      0.00000000	      0.00000000	     95.58969030	    -15.27945525	      0.55014387	     94.02923459	      1.64111974	     35.14826406	      0.00000000	      0.00000000	    -23.83367672	    -14.50977992	    -41.89986665	     34.01720779	    -27.02418290	     89.60811184	     78.49688666	     88.58378567	      0.00000000	      0.00000000	    -71.21317503	    -14.42805654	    -16.97356552	    116.24139768	     88.06854884	      0.00000000	      0.00000000
      4.42500000	    -34.89040371	     -1.80941651	      0.37911371	     -0.39565489	      0.62386710	     -0.89696985	     93.98342760	    -11.62826190	     -3.23266916	     95.32143656	      1.66367292	     37.08330796	      0.00000000	      0.00000000	     94.79519108	    -16.02228230	      0.46483075	     94.22331885	      1.64450715	     35.34163862	      0.00000000	      0.00000000	    -24.47441970	    -14.79596386	    -41.43316605	     34.00129053	    -26.85836522	     89.60413309	     78.32530006	     88.60248884	      0.00000000	      0.00000000	    -71.22137293	    -14.55248368	    -17.06563572	    116.25484202	     88.02952394	      0.00000000	      0.00000000
      4.43000000	    -35.00115955	     -1.85065510	      0.35354957	     -0.39595674	      0.62352752	     -0.89686045	     94.12292142	    -11.57533278	     -3.24648894	     95.31327546	      1.66353048	     37.01090332	      0.00000000	      0.00000000	     94.97153213	    -16.05558949	      0.51395878	     94.24528380	      1.64489051	     35.32799059	      0.00000000	      0.00000000	    -24.33943680	    -14.76677580	    -41.37800198	     33.99925888	    -26.89200607	     89.60495950	     78.37378825	     88.57522861	      0.00000000	      0.00000000	    -71.19790159	    -14.51160484	    -17.06968623	    116.21549013	     88.08426114	      0.00000000	      0.00000000
      4.43500000	    -35.57934886	     -1.87598476	      0.83632170	     -0.39738047	      0.62215468	     -0.89795401	     94.90594095	    -12.12684676	     -3.14596943	     95.42468065	      1.66547487	     36.90477054	      0.00000000	      0.00000000	     95.72424739	    -15.35711387	      0.60666765	     94.12931493	      1.64286647	     35.10166928	      0.00000000	      0.00000000	    -23.84379572	    -14.52228812	    -41.87600295	     34.04839980	    -27.01095210	     89.61124530	     78.50566323	     88.58854877	      0.00000000	      0.00000000	    -71.29805497	    -14.28846181	    -17.06525834	    116.30423752	     88.04357693	      0.00000000	      0.00000000
      4.44000000	    -35.03465951	     -1.83663797	      0.42340636	     -0.39631222	      0.62308697	     -0.89689804	     94.24301477	    -11.65151663	     -3.21775623	     95.38580710	      1.66479639	     36.96062471	      0.00000000	      0.00000000	     95.07964969	    -15.97507130	      0.52567241	     94.27465608	      1.64540315	     35.21858206	      0.00000000	      0.00000000	    -24.35000263	    -14.76562041	    -41.46998030	     34.02443743	    -26.88995509	     89.60635505	     78.38425530	     88.61228604	      0.00000000	      0.00000000	    -71.26316648	    -14.40700730	    -17.13689727	    116.26253758	     88.00972654	      0.00000000	      0.00000000
      4.44500000	    -35.13563224	     -1.85185560	      0.44674267	     -0.39664027	      0.62268631	     -0.89689528	     94.39786951	    -11.64549178	     -3.18113206	     95.43040625	      1.66557480	     36.99325104	      0.00000000	      0.00000000	     95.23617371	    -15.94331463	      0.54844327	     94.30034992	      1.64585159	     35.27865572	      0.00000000	      0.00000000	    -24.23621275	    -14.74420019	    -41.45447539	     34.01339005	    -26.94192564	     89.60820294	     78.44705927	     88.57881703	      0.00000000	      0.00000000	    -71.26263907	    -14.42154001	    -17.12658619	    116.33194318	     88.09607476	      0.00000000	      0.00000000
